<svg width="270" height="93" viewBox="0 0 270 93" fill="none" xmlns="http://www.w3.org/2000/svg">
<path d="M261.486 59.4522C261.944 59.4522 262.161 59.3123 262.161 58.7764V53.3003C262.161 52.7644 261.944 52.6245 261.486 52.6245V52.4614H263.126L265.803 58.4735H265.827L268.432 52.4614H270V52.6245C269.566 52.6245 269.325 52.7644 269.325 53.3003V58.7764C269.325 59.3123 269.566 59.4522 270 59.4522V59.6153H267.781V59.4522C268.239 59.4522 268.456 59.3123 268.456 58.7764V53.0207H268.432L265.586 59.592H265.345L262.426 53.1139H262.402V58.7764C262.402 59.3123 262.643 59.4522 263.077 59.4522V59.6153H261.486V59.4522ZM257.023 59.4522C257.457 59.4522 257.699 59.3123 257.699 58.7764V52.6711H256.854C255.962 52.6711 255.817 53.1838 255.817 53.8596V54.0227H255.6V52.4614H260.665V54.0227H260.448V53.8596C260.448 53.1838 260.279 52.6711 259.387 52.6711H258.591V58.7764C258.591 59.3123 258.808 59.4522 259.218 59.4522V59.6153H257.023V59.4522Z" fill="white"/>
<path d="M250.481 91.8193C252.518 91.8193 253.197 91.3133 253.197 88.2207V74.1639C253.197 69.7782 250.707 67.2479 246.52 67.2479C243.011 67.2479 239.389 69.6095 238.88 73.7141V88.2207C238.88 91.3133 239.559 91.8193 241.596 91.8193V92.3816H233.051V91.8193C235.145 91.8193 235.824 91.3133 235.824 88.2207V58.1391C235.824 55.7776 235.315 55.1591 233.164 55.0466V54.5406C235.145 54.5406 237.465 53.9783 238.654 53.416H239.05C238.937 57.0708 238.88 60.7818 238.88 64.4928V71.1839C240.295 67.9227 243.294 65.5049 247.821 65.5049C253.763 65.5049 256.253 69.0472 256.253 74.1639V88.2207C256.253 91.3133 256.819 91.8193 259.026 91.8193V92.3816H250.481V91.8193Z" fill="white"/>
<path d="M224.959 92.9999C220.941 92.9999 219.187 90.301 219.187 86.4775V67.2477H216.075V66.573C218.678 65.7296 219.923 65.4485 221.281 60.1631H222.186V66.1232H231.58V67.2477H222.186V86.1401C222.186 88.7828 223.035 91.2006 226.091 91.2006C228.921 91.2006 230.392 89.2889 231.071 87.9394H231.75C230.788 90.0198 228.807 92.9999 224.959 92.9999Z" fill="white"/>
<path d="M205.364 91.8193C207.458 91.8193 208.137 91.3133 208.137 88.2207V58.1391C208.137 55.7776 207.628 55.1591 205.477 55.0466V54.5406C207.458 54.5406 209.778 53.9783 210.966 53.416H211.363C211.249 57.0708 211.193 60.7818 211.193 64.4928V88.2207C211.193 91.3133 211.872 91.8193 213.909 91.8193V92.3816H205.364V91.8193Z" fill="white"/>
<path d="M187.514 92.9996C184.571 92.9996 181.063 91.7064 181.063 87.152C181.063 81.7542 184.798 79.5051 196.116 77.4809V74.1073C196.116 69.0468 194.475 66.123 190.626 66.123C186.156 66.123 185.307 69.4966 185.307 72.308C185.307 73.4888 184.854 74.3322 183.722 74.3322C182.591 74.3322 182.025 73.7699 182.025 72.308C182.025 68.8219 185.703 65.4482 191.136 65.4482C196.342 65.4482 199.115 67.9785 199.115 73.9386V88.6139C199.115 90.5819 200.134 91.2566 201.265 91.2566C202.51 91.2566 203.472 90.3007 203.812 88.3328H204.378C204.095 90.5256 202.85 92.9434 200.02 92.9434C198.153 92.9434 196.116 91.8751 196.116 88.8951V87.3207C194.531 90.1883 191.475 92.9996 187.514 92.9996ZM184.288 86.646C184.345 89.6822 186.326 91.2004 189.381 91.2004C192.607 91.2004 196.116 87.883 196.116 84.6218V78.2119C187.571 79.6738 184.232 81.8104 184.288 86.646Z" fill="white"/>
<path d="M166.309 93.0001C159.858 93.0001 154.935 87.7147 154.935 79.7304C154.935 71.1276 160.707 65.5049 167.045 65.5049C171.516 65.5049 176.043 68.0913 176.779 74.1077C176.835 74.6699 176.496 75.0073 175.93 75.0073H158.33C158.217 75.9632 158.104 76.9753 158.104 77.9874V78.2123C158.104 85.803 162.065 90.8634 167.554 90.8634C172.082 90.8634 175.364 87.7709 176.496 84.2286H177.118C176.156 87.7709 172.704 93.0001 166.309 93.0001ZM158.5 74.2764H173.666C173.666 68.991 170.78 66.1234 166.706 66.1234C162.405 66.1234 159.519 69.6657 158.5 74.2764Z" fill="white"/>
<path d="M141.038 91.8193C143.301 91.8193 144.546 91.3695 144.546 88.4457V72.6458H124.174V88.4457C124.174 91.3695 125.362 91.8193 127.682 91.8193V92.3816H117.213V91.8193C119.533 91.8193 120.778 91.3695 120.778 88.4457V58.0829C120.778 55.1591 119.533 54.7092 117.213 54.7092V54.147H127.682V54.7092C125.362 54.7092 124.174 55.1591 124.174 58.0829V71.7461H144.546V58.0829C144.546 55.1591 143.301 54.7092 141.038 54.7092V54.147H151.45V54.7092C149.13 54.7092 147.942 55.1591 147.942 58.0829V88.4457C147.942 91.3695 149.13 91.8193 151.45 91.8193V92.3816H141.038V91.8193Z" fill="white"/>
<path d="M95.7761 91.8193C97.87 91.8193 98.549 91.3133 98.549 88.2207V58.1391C98.549 55.7776 98.0397 55.1591 95.8893 55.0466V54.5406C97.87 54.5406 100.19 53.9783 101.379 53.416H101.775C101.661 57.0708 101.605 60.7818 101.605 64.4928V88.2207C101.605 91.3133 102.284 91.8193 104.321 91.8193V92.3816H95.7761V91.8193Z" fill="white"/>
<path d="M77.9259 92.9996C74.9832 92.9996 71.4746 91.7064 71.4746 87.152C71.4746 81.7542 75.2096 79.5051 86.5276 77.4809V74.1073C86.5276 69.0468 84.8865 66.123 81.0383 66.123C76.5677 66.123 75.7189 69.4966 75.7189 72.308C75.7189 73.4888 75.2662 74.3322 74.1344 74.3322C73.0025 74.3322 72.4366 73.7699 72.4366 72.308C72.4366 68.8219 76.115 65.4482 81.5477 65.4482C86.7539 65.4482 89.5269 67.9785 89.5269 73.9386V88.6139C89.5269 90.5819 90.5455 91.2566 91.6773 91.2566C92.9223 91.2566 93.8843 90.3007 94.2238 88.3328H94.7897C94.5068 90.5256 93.2618 92.9434 90.4323 92.9434C88.5648 92.9434 86.5276 91.8751 86.5276 88.8951V87.3207C84.9431 90.1883 81.8872 92.9996 77.9259 92.9996ZM74.7003 86.646C74.7568 89.6822 76.7375 91.2004 79.7934 91.2004C83.019 91.2004 86.5276 87.883 86.5276 84.6218V78.2119C77.9825 79.6738 74.6437 81.8104 74.7003 86.646Z" fill="white"/>
<path d="M62.7601 92.9999C58.7422 92.9999 56.9879 90.301 56.9879 86.4775V67.2477H53.8755V66.573C56.4786 65.7296 57.7236 65.4485 59.0818 60.1631H59.9872V66.1232H69.3812V67.2477H59.9872V86.1401C59.9872 88.7828 60.8361 91.2006 63.8919 91.2006C66.7214 91.2006 68.1928 89.2889 68.8719 87.9394H69.551C68.5889 90.0198 66.6083 92.9999 62.7601 92.9999Z" fill="white"/>
<path d="M37.6322 93.0001C30.4452 93.0001 24.8994 88.4456 24.8994 79.618C24.8994 70.9027 30.3321 65.5049 37.7454 65.5049C45.0455 65.5049 50.5347 69.9468 50.5347 78.7183C50.5347 87.4335 45.2153 93.0001 37.6322 93.0001ZM37.7454 92.3816C42.6121 92.3816 47.1959 88.8392 47.1959 79.0557C47.1959 69.1034 42.4989 66.1234 37.6888 66.1234C32.9352 66.1234 28.2382 69.2721 28.2382 79.2806C28.2382 89.1204 32.822 92.3816 37.7454 92.3816Z" fill="white"/>
<path d="M7.92264 91.8193C10.1862 91.8193 11.4312 91.3695 11.4312 88.4457V54.8217H7.41333C2.71635 54.8217 1.58455 57.0146 1.58455 60.6131V61.2316H0.848877V54.147H25.409V61.2316H24.6733V60.6131C24.6733 57.0146 23.5415 54.8217 18.8445 54.8217H14.8266V88.4457C14.8266 91.3695 16.0716 91.8193 18.3352 91.8193V92.3816H7.92264V91.8193Z" fill="white"/>
<path d="M222.093 36.2666V23.503H210.379V21.3663H222.093V8.82764H224.243V21.3663H235.958V23.503H224.243V36.2666H222.093Z" fill="white"/>
<path d="M194.494 39.584C188.043 39.584 183.119 34.2987 183.119 26.3144C183.119 17.7116 188.892 12.0889 195.23 12.0889C199.7 12.0889 204.228 14.6753 204.963 20.6917C205.02 21.2539 204.68 21.5913 204.114 21.5913H186.515C186.402 22.5472 186.288 23.5592 186.288 24.5713V24.7962C186.288 32.3869 190.25 37.4474 195.739 37.4474C200.266 37.4474 203.548 34.3549 204.68 30.8126H205.303C204.341 34.3549 200.889 39.584 194.494 39.584ZM186.685 20.8603H201.851C201.851 15.575 198.965 12.7074 194.89 12.7074C190.589 12.7074 187.703 16.2497 186.685 20.8603Z" fill="white"/>
<path d="M138.096 38.4033C140.416 38.4033 141.661 37.6723 141.661 34.7485V4.66687C141.661 1.74305 140.416 1.29323 138.096 1.29323V0.730957H145.34L158.978 34.0175H159.091L172.956 0.730957H179.633V1.29323C177.313 1.29323 176.125 1.12455 176.125 4.66687V35.0296C176.125 37.9535 177.313 38.4033 179.633 38.4033V38.9656H169.221V38.4033C171.484 38.4033 172.729 37.9535 172.729 35.0296V3.59855H172.673L157.903 38.9656H157.28L142.68 3.59855H142.623V34.7485C142.623 37.6723 143.812 38.4033 146.132 38.4033V38.9656H138.096V38.4033Z" fill="white"/>
<path d="M120.497 39.5841C115.517 39.5841 109.066 36.2666 109.066 26.5393C109.066 16.7558 115.687 12.0889 122.421 12.0889C125.647 12.0889 128.42 13.2697 130.174 14.338V4.7231C130.174 2.36155 129.608 1.74305 127.458 1.63059V1.12455C129.438 1.12455 131.476 0.562273 132.664 0H133.23V34.8047C133.23 37.8972 133.909 38.4033 135.946 38.4033V38.9656H130.174V33.9051C128.476 36.604 125.364 39.5841 120.497 39.5841ZM112.405 25.8646C112.405 34.2425 117.271 37.7848 121.912 37.7848C125.817 37.7848 129.212 35.2545 130.174 31.4873V19.7358C130.174 15.9123 126.326 13.0447 122.251 13.0447C116.253 13.0447 112.405 18.1052 112.405 25.8646Z" fill="white"/>
<path d="M96.6822 38.4033C98.776 38.4033 99.4551 37.8972 99.4551 34.8047V21.2539C99.4551 16.7557 96.9651 13.8319 92.7209 13.8319C88.9859 13.8319 85.0812 17.0369 85.0812 21.7037V34.8047C85.0812 37.8972 85.7603 38.4033 87.7975 38.4033V38.9655H79.2524V38.4033C81.3463 38.4033 82.0254 37.8972 82.0254 34.8047V16.5871C82.0254 14.1693 81.4595 13.607 79.309 13.4946V12.9885C81.2897 12.9885 83.4967 12.6511 84.6851 12.2013H85.0812V18.3301C86.4394 14.844 89.4952 12.0889 94.079 12.0889C100.021 12.0889 102.511 16.0248 102.511 21.2539V34.8047C102.511 37.8972 103.077 38.4033 105.284 38.4033V38.9655H96.6822V38.4033Z" fill="white"/>
<path d="M61.402 39.5841C58.4593 39.5841 54.9507 38.2909 54.9507 33.7365C54.9507 28.3386 58.6856 26.0896 70.0037 24.0654V20.6917C70.0037 15.6313 68.3625 12.7074 64.5144 12.7074C60.0438 12.7074 59.1949 16.0811 59.1949 18.8925C59.1949 20.0732 58.7422 20.9166 57.6104 20.9166C56.4786 20.9166 55.9127 20.3544 55.9127 18.8925C55.9127 15.4064 59.5911 12.0327 65.0237 12.0327C70.23 12.0327 73.0029 14.5629 73.0029 20.523V35.1984C73.0029 37.1663 74.0216 37.8411 75.1534 37.8411C76.3983 37.8411 77.3604 36.8852 77.6999 34.9172H78.2658C77.9829 37.1101 76.7379 39.5279 73.9084 39.5279C72.0409 39.5279 70.0037 38.4596 70.0037 35.4795V33.9052C68.4191 36.7728 65.3633 39.5841 61.402 39.5841ZM58.1763 33.2304C58.2329 36.2667 60.2136 37.7848 63.2694 37.7848C66.4951 37.7848 70.0037 34.4674 70.0037 31.2062V24.7963C61.4585 26.2582 58.1197 28.3949 58.1763 33.2304Z" fill="white"/>
<path d="M35.4691 39.5841C31.621 39.5841 28.1124 38.2908 26.8674 37.6161V36.4353C28.2822 37.2225 31.8474 38.6282 35.4125 38.6844C41.8638 38.7406 46.7306 34.2425 46.7306 27.6076C46.7306 20.523 41.3545 17.9365 35.1296 17.1493V16.5308L45.9949 3.711H30.5458C28.9047 3.711 28.1124 4.1046 28.1124 5.73519H27.5465V0.730957H49.1639V1.40568L38.0723 14.5067C44.7499 15.7437 50.2392 19.3422 50.2392 26.5393C50.2392 34.7485 42.9956 39.5841 35.4691 39.5841Z" fill="white"/>
<path d="M9.56373 28.507C16.0716 21.7598 19.8065 16.0246 19.8065 10.9079C19.8065 6.6346 17.1468 2.58624 11.2048 2.58624C4.47062 2.58624 1.47134 7.75915 0.735671 11.189H0.16977C1.01862 6.57838 3.96131 0.168457 12.4498 0.168457C19.0709 0.168457 23.3151 4.21683 23.3151 10.5705C23.3151 17.8801 17.3732 21.9847 10.1296 29.238L3.39541 35.9853H19.7499C20.5988 35.9853 22.2399 35.8166 22.2399 33.4551H22.8058V38.9653H0V38.2906L9.56373 28.507Z" fill="white"/>
</svg>
