<svg width="69" height="40" viewBox="0 0 69 40" fill="none" xmlns="http://www.w3.org/2000/svg">
<mask id="mask0_32_8997" style="mask-type:luminance" maskUnits="userSpaceOnUse" x="0" y="0" width="69" height="40">
<path fill-rule="evenodd" clip-rule="evenodd" d="M0 0H68.53V40H0V0Z" fill="white"/>
</mask>
<g mask="url(#mask0_32_8997)">
<path fill-rule="evenodd" clip-rule="evenodd" d="M0.331014 29.4566C-0.453949 31.0442 0.20468 32.965 1.80438 33.7462C3.40207 34.5254 5.3333 33.8698 6.11826 32.281L7.40253 29.6798L4.65053 20.7078L0.331014 29.4566Z" fill="#92C746"/>
</g>
<mask id="mask1_32_8997" style="mask-type:luminance" maskUnits="userSpaceOnUse" x="0" y="0" width="69" height="40">
<path fill-rule="evenodd" clip-rule="evenodd" d="M0 0H68.53V40H0" fill="white"/>
</mask>
<g mask="url(#mask1_32_8997)">
<path fill-rule="evenodd" clip-rule="evenodd" d="M18.3058 0.329238C16.7069 -0.451562 14.7757 0.203638 13.9907 1.79324L8.80859 12.2876L11.5606 21.2588L19.7784 4.61724C20.5625 3.02884 19.9043 1.10844 18.3058 0.329238Z" fill="#92C746"/>
</g>
<path fill-rule="evenodd" clip-rule="evenodd" d="M9.87271 37.73C10.3901 39.422 12.193 40.376 13.8957 39.8596C15.5988 39.344 16.558 37.5528 16.039 35.8592L11.5605 21.2588L7.40234 29.6796L9.87271 37.73Z" fill="#D50F67"/>
<path fill-rule="evenodd" clip-rule="evenodd" d="M6.9981 6.38316C6.47868 4.69036 4.67701 3.73636 2.9731 4.25276C1.2704 4.76876 0.311627 6.55916 0.830242 8.25236L4.65086 20.7076L8.80863 12.288L6.9981 6.38316Z" fill="#D50F67"/>
<path fill-rule="evenodd" clip-rule="evenodd" d="M4.65039 20.7078L7.40239 29.6798L11.5606 21.259L8.80816 12.2878L4.65039 20.7078Z" fill="#3BA510"/>
<path fill-rule="evenodd" clip-rule="evenodd" d="M23.5465 24.1808H17.7238C17.7109 24.0532 17.7109 23.938 17.7109 23.8484C17.7109 22.3892 18.2903 21.4276 19.7073 20.5056C20.4416 20.02 20.8918 19.724 21.0721 19.5968C21.2652 19.4556 21.4197 19.2752 21.5497 19.0704C21.6784 18.8544 21.7428 18.5964 21.7428 18.3544C21.7428 17.7128 21.3034 17.2776 20.673 17.2776C19.9001 17.2776 19.4623 17.8156 19.437 18.8148H17.7109C17.7359 17.7128 17.9926 17.0736 18.6387 16.5488C19.1791 16.1132 19.8361 15.8944 20.673 15.8944C22.4388 15.8944 23.5593 16.8168 23.5593 18.276C23.5593 19.43 22.9659 20.2236 21.3557 21.2612C20.1326 22.042 19.9781 22.1964 19.8482 22.76H23.5465V24.1808Z" fill="#9C9EA1"/>
<path fill-rule="evenodd" clip-rule="evenodd" d="M25.9827 21.6714C25.9827 22.4654 26.5097 22.9646 27.3221 22.9646C28.0813 22.9646 28.5709 22.5426 28.5709 21.8886C28.5709 21.1082 28.0813 20.8002 26.8195 20.8002H26.6268V19.4046H26.8071C28.0173 19.4046 28.4937 19.1102 28.4937 18.3542C28.4937 17.7398 28.0173 17.2918 27.347 17.2918C26.5488 17.2918 26.1106 17.7654 26.1106 18.6354V18.6482H24.3202C24.3717 17.5974 24.6163 17.0474 25.2609 16.5358C25.7899 16.113 26.4977 15.8946 27.3848 15.8946C29.1121 15.8946 30.2467 16.7786 30.2467 18.1358C30.2467 19.0966 29.6914 19.8002 28.7133 20.0446C29.061 20.1218 29.1885 20.1722 29.3704 20.2754C30.0145 20.6082 30.3484 21.2106 30.3484 21.9786C30.3484 23.4394 29.1885 24.3474 27.3603 24.3474C25.3643 24.3474 24.2168 23.3114 24.2168 21.4654H25.9943C25.9943 21.5558 25.9827 21.6198 25.9827 21.6714Z" fill="#9C9EA1"/>
<path fill-rule="evenodd" clip-rule="evenodd" d="M34.792 21.416L34.2131 21.5048C33.1316 21.6716 32.7043 21.9148 32.7043 22.3892C32.7043 22.824 33.0922 23.1192 33.6446 23.1192C34.5345 23.1192 34.998 22.5424 35.0242 21.3768L34.792 21.416ZM33.9686 17.8156C34.8707 17.8156 35.5917 18.0592 36.0555 18.5336C36.5066 18.9808 36.6611 19.4804 36.6611 20.5824C36.647 20.6724 36.647 20.966 36.6353 21.4792V22.0556C36.6353 23.028 36.6856 23.6688 36.8019 24.1808H35.3458C35.2814 23.8356 35.2814 23.72 35.2814 23.4904V23.234C34.8316 24.002 34.2 24.3224 33.1812 24.3224C31.8555 24.3224 30.9277 23.5536 30.9277 22.452C30.9277 21.9916 31.1072 21.556 31.4045 21.2488C31.7642 20.8768 32.216 20.6848 33.0658 20.5184C33.722 20.4036 34.4317 20.3004 35.0244 20.262C35.0244 19.3912 34.7154 19.0204 33.9936 19.0204C33.3108 19.0204 32.9624 19.3276 32.9229 19.93H31.1603C31.25 18.6104 32.2929 17.8156 33.9686 17.8156Z" fill="#9C9EA1"/>
<path fill-rule="evenodd" clip-rule="evenodd" d="M39.4442 18.7632C39.894 18.1616 40.4999 17.8544 41.2603 17.8544C42.162 17.8544 42.9348 18.328 43.2052 19.0576C43.3601 19.4416 43.3859 19.7496 43.3859 20.6724V24.1808H41.6727V20.5572C41.6727 19.5568 41.3891 19.1616 40.6797 19.1616C39.894 19.1616 39.5339 19.7384 39.5339 20.98V24.1808H37.8203V17.9956H39.4442V18.7632Z" fill="#9C9EA1"/>
<path fill-rule="evenodd" clip-rule="evenodd" d="M47.2106 22.9265C47.9955 22.9265 48.5246 22.1965 48.5246 21.0817C48.5113 19.9417 48.0341 19.2633 47.2363 19.2633C46.4377 19.2633 45.9355 19.9805 45.9355 21.0949C45.9355 22.1705 46.4634 22.9265 47.2106 22.9265ZM50.2111 24.1809H48.5884V23.3609C48.1885 24.0021 47.5701 24.3221 46.7723 24.3221C45.2639 24.3221 44.209 23.0037 44.209 21.1081C44.209 19.1729 45.2124 17.8541 46.6954 17.8541C47.5319 17.8541 48.0871 18.1357 48.4987 18.7757V15.6521H50.2111V24.1809Z" fill="#9C9EA1"/>
<path fill-rule="evenodd" clip-rule="evenodd" d="M61.2127 24.1808H59.5012V17.316L57.3997 24.1808H55.5309L53.4061 17.316V24.1808H51.6934V15.652H54.5649L56.5371 22.1072L58.4696 15.652H61.2127V24.1808Z" fill="#9C9EA1"/>
<path fill-rule="evenodd" clip-rule="evenodd" d="M66.7527 20.3769C66.7257 19.6217 66.2111 19.1101 65.4511 19.1101C64.7044 19.1101 64.2381 19.5445 64.098 20.3769H66.7527ZM65.5145 24.3221C63.5841 24.3221 62.3457 23.0533 62.3457 21.0573C62.3457 19.1353 63.5962 17.8541 65.4634 17.8541C67.346 17.8541 68.5297 19.1353 68.5297 21.2105C68.5297 21.3121 68.518 21.3893 68.518 21.6077H64.112C64.151 22.5041 64.6793 23.0161 65.554 23.0161C66.1329 23.0161 66.5208 22.7733 66.6882 22.2857H68.518C68.1181 23.6177 67.0623 24.3221 65.5145 24.3221Z" fill="#9C9EA1"/>
</svg>
